<svg height="511pt" viewBox="-1 0 511 511.99981" width="511pt" xmlns="http://www.w3.org/2000/svg"><path d="m311.585938 58.179688h33.835937v218.996093h-33.835937zm0 0" fill="#fdc202"/><path d="m509.453125 364.15625h-310.753906v-113.0625c0-9.199219 7.457031-16.65625 16.65625-16.65625h277.441406c9.199219 0 16.65625 7.457031 16.65625 16.65625zm0 0" fill="#63a6fd"/><path d="m509.453125 450.476562h-409.851563v-106.863281c0-9.195312 7.457032-16.652343 16.65625-16.652343h393.195313zm0 0" fill="#4395fb"/><path d="m492.796875 512h-475.640625c-9.199219 0-16.65625-7.457031-16.65625-16.65625v-59.210938c0-9.195312 7.457031-16.652343 16.65625-16.652343h492.296875v75.863281c0 9.199219-7.457031 16.65625-16.65625 16.65625zm0 0" fill="#1980f9"/><path d="m486.921875 71.214844-139.171875 49.398437-28.011719 9.941407c-3.980469 1.40625-8.152343-1.539063-8.152343-5.765626v-118.675781c0-4.214843 4.171874-7.171875 8.152343-5.753906l28.011719 9.9375 139.171875 49.398437c5.425781 1.921876 5.425781 9.589844 0 11.519532zm0 0" fill="#f64346"/><path d="m347.75 10.300781v110.316407l-28.011719 9.941406c-3.976562 1.402344-8.152343-1.539063-8.152343-5.765625v-118.675781c0-4.214844 4.175781-7.171876 8.152343-5.753907zm0 0" fill="#cb353c"/></svg>