<svg height="512pt" viewBox="-52 0 512 512" width="512pt" xmlns="http://www.w3.org/2000/svg"><path d="m402.867188 226.519531-67.066407-63.4375 67.238281-65.664062c4.363282-4.261719 5.714844-10.742188 3.414063-16.390625-2.300781-5.648438-7.792969-9.339844-13.894531-9.339844h-152.167969l-103.613281 180.730469h255.78125c6.144531 0 11.667968-3.746094 13.9375-9.453125 2.273437-5.707032.835937-12.226563-3.628906-16.445313zm0 0" fill="#fdbf00"/><path d="m252.800781 158.609375c-2.015625-6.175781-7.769531-10.355469-14.265625-10.355469h-101.757812c-8.285156 0-15 6.71875-15 15v74.164063c0 5.644531 3.167968 10.808593 8.199218 13.367187 2.144532 1.09375 4.476563 1.632813 6.796876 1.632813 3.121093 0 6.222656-.972657 8.835937-2.878907l101.761719-74.160156c5.25-3.828125 7.4375-10.59375 5.429687-16.769531zm0 0" fill="#ff9f00"/><path d="m238.535156 31.234375h-176.902344v147.019531h176.902344c8.285156 0 15-6.714844 15-15v-117.019531c0-8.285156-6.714844-15-15-15zm0 0" fill="#ffd74a"/><path d="m59.375 410.273438c-8.285156 0-15-6.714844-15-15v-380.273438c0-8.285156 6.714844-15 15-15 8.28125 0 15 6.714844 15 15v380.273438c0 8.285156-6.71875 15-15 15zm0 0" fill="#ededf2"/><path d="m59.375 0v410.273438c8.28125 0 15-6.714844 15-15v-380.273438c0-8.285156-6.71875-15-15-15zm0 0" fill="#e2e2e7"/><path d="m103.75 512h-88.75c-8.285156 0-15-6.714844-15-15v-45.644531c0-32.738281 26.636719-59.375 59.375-59.375s59.375 26.636719 59.375 59.375v45.644531c0 8.285156-6.71875 15-15 15zm0 0" fill="#e2e2e7"/><path d="m59.375 391.980469v120.019531h44.375c8.28125 0 15-6.714844 15-15v-45.644531c0-32.738281-26.636719-59.375-59.375-59.375zm0 0" fill="#d3d3d8"/></svg>